<svg width="34" height="33" viewBox="0 0 34 33" fill="none" xmlns="http://www.w3.org/2000/svg">
<g clip-path="url(#clip0)">
<path d="M8.29502 8.8803C4.51111 13.3898 5.43114 20.388 10.3506 24.5159C15.27 28.6438 22.3216 28.3346 26.1055 23.8251C29.8895 19.3156 28.9694 12.3174 24.05 8.18954C19.1305 4.06164 12.0789 4.37081 8.29502 8.8803ZM22.183 12.4565C22.42 12.6553 22.4647 12.9958 22.2824 13.213L19.7414 16.2413L23.045 19.0133C23.282 19.2122 23.3267 19.5526 23.1444 19.7699L21.5977 21.6132C21.4154 21.8304 21.0724 21.8455 20.8354 21.6466L17.5318 18.8746L14.9908 21.9028C14.8085 22.1201 14.4655 22.1351 14.2285 21.9363L12.2176 20.2489C11.9806 20.0501 11.9358 19.7096 12.1181 19.4924L14.6592 16.4641L11.3556 13.6921C11.1186 13.4932 11.0738 13.1528 11.2561 12.9355L12.8028 11.0922C12.9851 10.875 13.3282 10.86 13.5652 11.0588L16.8687 13.8308L19.4098 10.8026C19.5921 10.5853 19.9351 10.5703 20.1721 10.7691L22.183 12.4565Z" fill="black"/>
</g>
<defs>
<clipPath id="clip0">
<rect width="22" height="24" fill="white" transform="translate(0.937012 17.0658) rotate(-50)"/>
</clipPath>
</defs>
</svg>
