<svg width="22" height="25" viewBox="0 0 22 25" fill="none" xmlns="http://www.w3.org/2000/svg">
<path d="M19.6429 22.6428H2.35714C1.0558 22.6428 0 21.635 0 20.3928V3.89282C0 2.65063 1.0558 1.64282 2.35714 1.64282H19.6429C20.9442 1.64282 22 2.65063 22 3.89282V20.3928C22 21.635 20.9442 22.6428 19.6429 22.6428ZM11.6924 8.48188L5.02857 14.8428L4.7192 17.5194C4.67991 17.8756 4.9942 18.1803 5.37232 18.1428L8.17634 17.8475L14.8402 11.4866C14.9531 11.3788 14.9531 11.2006 14.8402 11.0881L12.1147 8.48657C11.992 8.37407 11.8054 8.37407 11.6924 8.48188ZM16.942 7.88189L15.4638 6.47095C15.0022 6.03032 14.2558 6.03032 13.7991 6.47095L12.6647 7.55376C12.5518 7.66157 12.5518 7.8397 12.6647 7.9522L15.3902 10.5538C15.5031 10.6616 15.6897 10.6616 15.8076 10.5538L16.942 9.47095C17.3987 9.03501 17.3987 8.32251 16.942 7.88189Z" fill="black"/>
</svg>
